<?xml version="1.0" standalone="no"?>
<!DOCTYPE svg PUBLIC "-//W3C//DTD SVG 20010904//EN"
 "http://www.w3.org/TR/2001/REC-SVG-20010904/DTD/svg10.dtd">
<svg version="1.0" xmlns="http://www.w3.org/2000/svg"
 width="225.000000pt" height="225.000000pt" viewBox="0 0 225.000000 225.000000"
 preserveAspectRatio="xMidYMid meet">

<g transform="translate(0.000000,225.000000) scale(0.100000,-0.100000)"
fill="#DE4307" stroke="none">
<path d="M675 2058 c-11 -6 -32 -22 -47 -36 l-27 -24 -46 22 c-38 19 -58 22
-107 17 -76 -7 -121 -36 -183 -119 -26 -35 -96 -111 -156 -169 -109 -106 -109
-106 -109 -154 0 -45 3 -52 58 -106 69 -69 104 -79 196 -57 77 19 168 5 196
-30 24 -29 95 -213 131 -342 17 -58 39 -135 50 -171 15 -53 27 -74 63 -107 42
-38 95 -62 142 -62 12 0 25 -8 29 -17 15 -41 16 -224 1 -353 -19 -169 -19
-170 95 -170 102 0 109 8 110 140 0 52 8 171 18 264 19 189 15 181 110 217 47
18 71 20 151 16 108 -6 192 -28 224 -60 39 -39 60 -200 52 -390 -5 -115 -3
-163 5 -173 8 -10 34 -14 84 -14 110 0 104 -15 111 316 7 318 4 303 102 441
85 118 97 163 97 357 l0 158 24 -53 c23 -50 25 -68 29 -256 l5 -202 -26 -31
c-50 -58 -44 -136 17 -258 62 -123 92 -127 145 -20 28 55 31 70 31 153 0 78
-3 96 -20 118 -11 14 -29 28 -39 32 -16 5 -19 24 -24 208 -4 140 -10 217 -21
252 -20 64 -76 137 -146 191 -30 24 -73 59 -95 77 -71 62 -138 97 -213 112
-85 18 -122 14 -256 -28 l-98 -30 -152 11 c-83 7 -173 18 -201 25 -56 15 -169
64 -204 87 -23 15 -23 17 -7 47 30 58 18 128 -28 165 -24 20 -43 22 -71 6z
m-267 -307 c8 -4 12 -19 10 -32 -3 -21 -8 -24 -43 -24 -35 0 -40 3 -43 24 -4
26 12 41 43 41 11 0 26 -4 33 -9z"/>
</g>
</svg>
