<svg width="134" height="96" viewBox="0 0 134 96" fill="none" xmlns="http://www.w3.org/2000/svg">
<path d="M39.7554 94.6629H16.6845V15.6705L27.84 1L39.7554 15.6705V94.6629Z" stroke="black" stroke-width="2" stroke-linecap="round" stroke-linejoin="round"/>
<path d="M78.4806 94.6629H55.4401V15.6705L66.5956 1L78.4806 15.6705V94.6629Z" stroke="black" stroke-width="2" stroke-linecap="round" stroke-linejoin="round"/>
<path d="M117.236 94.6629H94.1652V15.6705L105.321 1L117.236 15.6705V94.6629Z" stroke="black" stroke-width="2" stroke-linecap="round" stroke-linejoin="round"/>
<path d="M55.4401 64.815H39.7555V78.1546H55.4401V64.815Z" stroke="black" stroke-width="2" stroke-linecap="round" stroke-linejoin="round"/>
<path d="M94.1652 64.815H78.4806V78.1546H94.1652V64.815Z" stroke="black" stroke-width="2" stroke-linecap="round" stroke-linejoin="round"/>
<path d="M55.4401 30.2142H39.7555V43.5539H55.4401V30.2142Z" stroke="black" stroke-width="2" stroke-linecap="round" stroke-linejoin="round"/>
<path d="M16.6846 64.815H1V78.1546H16.6846V64.815Z" stroke="black" stroke-width="2" stroke-linecap="round" stroke-linejoin="round"/>
<path d="M16.6846 30.2142H1V43.5539H16.6846V30.2142Z" stroke="black" stroke-width="2" stroke-linecap="round" stroke-linejoin="round"/>
<path d="M94.1652 30.2142H78.4806V43.5539H94.1652V30.2142Z" stroke="black" stroke-width="2" stroke-linecap="round" stroke-linejoin="round"/>
<path d="M132.921 64.815H117.236V78.1546H132.921V64.815Z" stroke="black" stroke-width="2" stroke-linecap="round" stroke-linejoin="round"/>
<path d="M132.921 30.2142H117.236V43.5539H132.921V30.2142Z" stroke="black" stroke-width="2" stroke-linecap="round" stroke-linejoin="round"/>
</svg>
