<?xml version="1.0" standalone="no"?>
<!DOCTYPE svg PUBLIC "-//W3C//DTD SVG 20010904//EN"
 "http://www.w3.org/TR/2001/REC-SVG-20010904/DTD/svg10.dtd">
<svg version="1.0" xmlns="http://www.w3.org/2000/svg"
 width="256.000000pt" height="256.000000pt" viewBox="0 0 256.000000 256.000000"
 preserveAspectRatio="xMidYMid meet">

<g transform="translate(0.000000,256.000000) scale(0.100000,-0.100000)"
fill="#de4307" stroke="none">
<path d="M394 2283 c-14 -15 -16 -31 -11 -118 10 -163 59 -307 132 -393 l32
-37 -83 4 c-72 3 -90 0 -139 -23 -64 -29 -185 -143 -185 -174 0 -41 110 -150
185 -183 88 -38 194 -32 288 16 l47 24 0 -292 c0 -327 6 -370 66 -495 41 -85
136 -192 222 -248 31 -21 95 -51 142 -68 76 -27 97 -30 200 -30 97 0 128 5
196 27 187 62 327 199 403 395 25 66 26 71 29 380 2 171 4 312 5 312 1 0 25
-8 52 -19 78 -29 156 -35 219 -17 104 30 236 155 222 210 -8 33 -120 134 -181
162 -38 18 -68 24 -122 24 l-73 0 36 47 c74 98 111 211 121 373 5 92 4 108
-11 123 -30 29 -52 20 -106 -45 -111 -135 -228 -210 -370 -238 -42 -8 -52 -5
-135 35 -107 52 -165 65 -288 65 -114 0 -189 -18 -290 -70 -85 -43 -93 -44
-204 -8 -91 28 -168 83 -263 186 -47 51 -92 92 -102 92 -9 0 -24 -8 -34 -17z
m241 -301 c28 -16 79 -40 115 -53 36 -12 66 -23 68 -25 2 -1 -64 -102 -94
-143 -9 -11 -61 15 -100 51 -66 60 -102 132 -129 252 l-6 29 48 -40 c26 -22
71 -54 98 -71z m1440 37 c-30 -113 -81 -194 -150 -234 -55 -33 -67 -31 -89 8
-11 17 -33 49 -49 70 -16 21 -28 39 -26 41 2 1 37 14 77 29 73 26 191 97 226
136 11 12 21 19 23 17 2 -2 -3 -32 -12 -67z m-645 -36 c183 -50 333 -204 375
-386 12 -54 15 -125 13 -369 l-3 -303 -435 -1 c-239 0 -477 1 -527 4 l-93 4 0
297 c0 266 2 306 20 377 73 286 365 455 650 377z m-862 -373 c81 -46 79 -101
-7 -147 -33 -17 -60 -23 -111 -23 -57 0 -73 4 -112 30 -24 16 -53 39 -64 51
-19 21 -19 21 16 51 67 57 99 69 171 65 45 -3 79 -11 107 -27z m1647 1 c28
-16 59 -38 69 -50 19 -21 19 -21 -5 -47 -13 -14 -43 -37 -67 -51 -37 -22 -52
-25 -116 -21 -59 3 -81 8 -114 31 -57 37 -64 70 -25 109 64 64 176 76 258 29z
m-409 -833 c-12 -80 -71 -185 -143 -257 -182 -181 -445 -208 -661 -69 -101 66
-172 156 -212 273 -36 106 -93 95 501 95 l522 0 -7 -42z"/>
<path d="M931 1377 c-74 -43 -63 -154 18 -178 51 -15 90 3 114 53 16 32 16 40
4 70 -8 18 -21 39 -30 46 -23 20 -79 24 -106 9z"/>
<path d="M1564 1380 c-56 -22 -73 -112 -30 -155 32 -32 69 -40 107 -25 39 16
59 46 59 88 0 44 -14 68 -50 87 -32 17 -54 18 -86 5z"/>
<path d="M1070 645 l0 -75 50 0 50 0 0 75 0 75 -50 0 -50 0 0 -75z"/>
<path d="M1390 646 l0 -76 50 0 c56 0 60 5 57 95 l-2 50 -52 3 -53 3 0 -75z"/>
</g>
</svg>
