<?xml version="1.0" standalone="no"?>
<!DOCTYPE svg PUBLIC "-//W3C//DTD SVG 20010904//EN"
 "http://www.w3.org/TR/2001/REC-SVG-20010904/DTD/svg10.dtd">
<svg version="1.0" xmlns="http://www.w3.org/2000/svg"
 width="225.000000pt" height="225.000000pt" viewBox="0 0 225.000000 225.000000"
 preserveAspectRatio="xMidYMid meet">

<g transform="translate(0.000000,225.000000) scale(0.100000,-0.100000)"
fill="#DE4307" stroke="none">
<path d="M1305 2236 c-27 -7 -84 -27 -125 -46 -73 -33 -89 -47 -603 -559 -290
-289 -538 -542 -550 -561 -28 -44 -30 -149 -5 -195 9 -16 203 -215 430 -442
372 -371 417 -413 458 -423 55 -15 122 -7 164 19 17 11 266 255 553 543 l522
523 39 85 c22 47 45 109 51 138 16 77 15 732 -1 786 -16 53 -81 118 -134 134
-57 17 -728 15 -799 -2z m535 -287 c60 -27 79 -45 106 -104 38 -79 28 -157
-28 -221 -123 -140 -351 -71 -366 111 -14 165 142 280 288 214z"/>
</g>
</svg>
