<?xml version="1.0" standalone="no"?>
<!DOCTYPE svg PUBLIC "-//W3C//DTD SVG 20010904//EN"
 "http://www.w3.org/TR/2001/REC-SVG-20010904/DTD/svg10.dtd">
<svg version="1.0" xmlns="http://www.w3.org/2000/svg"
 width="399.000000pt" height="239.000000pt" viewBox="0 0 399.000000 239.000000"
 preserveAspectRatio="xMidYMid meet">

<g transform="translate(0.000000,239.000000) scale(0.100000,-0.100000)"
fill="#000000" stroke="none">
<path d="M1703 1774 c-4 -10 -2 -19 5 -22 6 -2 21 -11 32 -20 19 -15 19 -19 7
-36 -14 -19 -15 -19 -46 3 -29 21 -51 21 -51 1 0 -5 16 -18 35 -30 34 -21 34
-22 18 -47 -16 -24 -16 -26 3 -40 17 -13 21 -12 40 10 l21 25 31 -20 c30 -19
31 -21 16 -43 -13 -21 -13 -24 3 -40 16 -17 18 -16 39 8 l21 25 32 -20 c30
-19 31 -22 17 -44 -14 -20 -14 -24 0 -38 21 -22 31 -20 46 9 l13 24 33 -21
c31 -19 32 -22 18 -44 -14 -20 -14 -24 0 -38 21 -21 29 -20 47 7 15 21 16 22
43 5 16 -10 27 -23 25 -30 -13 -43 -12 -56 6 -62 12 -5 22 -1 32 13 17 26 29
26 61 1 20 -15 23 -21 13 -31 -18 -18 -16 -46 4 -54 12 -4 24 1 35 14 20 26
26 26 58 1 20 -15 23 -21 13 -31 -18 -18 -16 -46 4 -54 12 -4 24 1 36 16 18
22 19 22 45 6 27 -16 29 -23 17 -64 -5 -16 -2 -23 15 -28 21 -7 33 2 43 29 2
6 21 -3 43 -19 21 -16 41 -31 43 -32 3 -2 -1 -9 -7 -15 -17 -17 -15 -48 5 -55
10 -4 23 2 34 16 18 22 19 22 49 4 21 -12 28 -22 24 -33 -22 -49 13 -83 43
-41 14 21 15 21 44 4 20 -12 27 -22 23 -33 -22 -49 13 -83 43 -41 14 21 15 21
44 4 20 -12 27 -22 23 -33 -22 -49 13 -83 43 -41 14 21 15 21 44 4 31 -18 36
-32 18 -50 -16 -16 -3 -43 20 -43 11 0 25 9 31 20 11 20 12 20 40 3 32 -18 37
-32 19 -50 -16 -16 -3 -43 20 -43 11 0 25 9 31 20 11 20 12 20 40 3 31 -18 36
-29 21 -52 -23 -37 26 -57 51 -22 14 19 14 19 46 -1 29 -18 31 -22 18 -40 -8
-11 -12 -27 -9 -34 8 -20 40 -17 55 5 14 19 16 18 76 -22 60 -39 61 -42 47
-63 -13 -20 -13 -25 1 -38 21 -21 29 -20 46 5 13 21 15 21 47 5 31 -17 32 -18
17 -41 -14 -22 -14 -25 0 -39 21 -21 29 -20 47 7 15 21 16 22 43 5 16 -10 27
-23 25 -30 -13 -43 -12 -56 6 -62 12 -5 23 -1 35 13 20 26 26 26 58 1 20 -15
23 -21 12 -31 -17 -18 -15 -48 5 -56 10 -4 23 2 35 17 16 20 22 22 39 12 16
-10 19 -9 19 6 0 10 -5 23 -12 30 -9 9 -9 15 0 24 7 7 12 35 12 63 -1 42 -3
47 -13 34 -11 -15 -15 -14 -44 6 -30 20 -31 23 -18 41 19 26 19 31 -7 45 -18
10 -24 8 -38 -11 -17 -23 -17 -23 -48 -4 -30 17 -31 19 -17 41 19 29 19 30 -7
44 -18 10 -24 8 -38 -11 -17 -22 -18 -23 -48 -5 -29 18 -30 20 -16 46 13 26
13 29 -8 40 -18 10 -24 8 -40 -11 l-18 -22 -58 38 c-31 21 -58 39 -60 40 -2 1
4 13 13 27 15 24 15 26 -6 41 -21 14 -24 14 -37 -7 -9 -12 -16 -23 -18 -25 -2
-3 -38 17 -63 35 -2 1 4 14 13 27 15 24 15 26 -7 41 -21 14 -23 14 -40 -10
-19 -25 -24 -25 -76 12 -2 1 4 14 13 27 15 24 15 26 -7 41 -21 14 -23 14 -40
-10 -18 -25 -19 -25 -48 -8 -20 12 -27 23 -23 33 16 38 15 49 -5 59 -17 10
-23 7 -37 -14 -16 -24 -17 -24 -45 -8 -33 19 -34 25 -16 54 10 17 9 22 -8 35
-18 14 -22 13 -40 -10 -20 -25 -22 -25 -45 -9 -14 9 -27 18 -29 20 -2 2 2 15
10 29 12 23 12 27 -6 40 -18 14 -22 13 -40 -10 l-20 -25 -32 20 c-32 20 -32
21 -16 46 16 24 16 26 -2 39 -25 19 -28 18 -45 -11 l-15 -24 -32 20 c-32 20
-32 21 -16 46 16 24 16 26 -2 39 -25 19 -28 18 -45 -10 l-15 -24 -39 32 c-34
30 -37 35 -26 55 9 17 9 26 -1 37 -16 19 -28 18 -48 -8 -17 -21 -18 -21 -49
-3 -28 17 -30 20 -16 39 19 27 18 33 -6 46 -17 9 -24 7 -39 -11 -18 -22 -18
-22 -49 -4 -31 19 -31 20 -15 44 15 23 14 25 -3 38 -25 18 -33 17 -45 -11
l-12 -25 -33 22 c-31 21 -32 23 -18 44 18 29 18 30 -8 44 -18 10 -24 8 -38
-11 -17 -22 -18 -23 -48 -5 -29 18 -30 20 -16 46 13 26 13 29 -8 40 -18 10
-24 8 -38 -11 -14 -18 -20 -20 -36 -12 -47 27 -47 28 -29 55 16 25 15 26 -6
38 -20 10 -25 9 -40 -10 -14 -17 -22 -20 -36 -12 -46 26 -46 27 -28 54 16 25
15 26 -6 38 -20 10 -25 9 -41 -10 -17 -22 -18 -22 -48 -5 -35 21 -35 22 -14
52 14 21 14 23 -11 34 -26 12 -37 6 -48 -26 -2 -6 -20 0 -40 13 -34 21 -37 21
-44 5z m145 -110 c18 -12 20 -19 12 -35 -13 -23 -19 -23 -49 0 -16 12 -22 24
-18 35 8 20 26 20 55 0z m132 -93 c0 -5 -6 -14 -14 -20 -12 -10 -20 -9 -40 4
-30 20 -30 20 -15 46 10 19 10 19 40 -1 16 -12 29 -25 29 -29z m110 -70 c0 -5
-6 -14 -14 -20 -12 -10 -20 -9 -40 4 -30 20 -30 20 -15 46 10 19 10 19 40 -1
16 -12 29 -25 29 -29z m110 -66 c0 -2 -3 -10 -6 -19 -8 -21 -23 -20 -53 3 -20
15 -22 21 -12 40 l12 22 30 -21 c16 -12 29 -23 29 -25z m106 -87 c-14 -22 -25
-22 -55 1 -20 15 -22 20 -10 38 l12 21 33 -21 c27 -18 30 -24 20 -39z m110
-70 c-14 -22 -25 -22 -55 1 -20 15 -22 20 -10 38 l12 21 33 -21 c27 -18 30
-24 20 -39z m113 -70 c-12 -22 -23 -23 -54 -2 -20 13 -22 19 -13 39 l11 24 32
-22 c27 -17 31 -25 24 -39z m71 -26 c0 -4 14 -16 30 -25 30 -18 39 -40 20 -52
-5 -3 -27 6 -49 21 -34 22 -39 29 -30 45 10 19 29 26 29 11z m145 -98 c14 -9
25 -23 25 -30 0 -23 -28 -28 -55 -10 -21 14 -24 20 -15 36 13 24 14 24 45 4z
m114 -73 c20 -15 23 -23 15 -40 l-9 -21 -33 20 c-28 17 -31 23 -22 40 13 25
18 25 49 1z m113 -74 c24 -19 26 -24 14 -39 -12 -16 -15 -16 -45 3 -27 16 -30
22 -21 39 14 25 19 25 52 -3z m110 -70 c24 -19 26 -24 14 -39 -12 -16 -14 -16
-44 2 -29 18 -31 22 -20 40 16 25 17 25 50 -3z m111 -70 c24 -19 26 -24 15
-39 -12 -17 -15 -17 -46 2 -29 18 -31 22 -20 40 16 25 17 25 51 -3z m108 -68
c24 -17 27 -24 19 -40 -10 -18 -13 -18 -40 -4 -31 16 -34 23 -24 49 8 20 10
20 45 -5z m129 -110 c-10 -18 -13 -18 -40 -4 -32 16 -38 33 -18 53 8 8 18 6
40 -9 23 -17 26 -24 18 -40z m180 -100 c0 -3 -7 -12 -14 -19 -12 -9 -26 -4
-70 27 -57 39 -64 51 -45 70 9 9 27 1 70 -30 33 -22 59 -44 59 -48z m90 -47
c22 -18 20 -52 -4 -52 -23 1 -57 36 -50 53 8 22 26 22 54 -1z m112 -70 c22
-15 24 -20 14 -35 -16 -21 -25 -21 -54 1 -15 12 -21 24 -16 35 8 22 22 21 56
-1z m110 -70 c22 -15 24 -20 14 -35 -16 -21 -25 -21 -56 2 -20 16 -22 21 -11
35 17 20 20 20 53 -2z"/>
</g>
</svg>
